<svg xmlns="http://www.w3.org/2000/svg" width="18.101" height="19.102" viewBox="0 0 22.101 22.102">
  <path id="Icon_awesome-directions" data-name="Icon awesome-directions" d="M21.7,10.072,12.03.405a1.385,1.385,0,0,0-1.958,0L.405,10.072a1.385,1.385,0,0,0,0,1.958L10.072,21.7a1.384,1.384,0,0,0,1.958,0L21.7,12.03a1.385,1.385,0,0,0,0-1.958Zm-4.359.542L13.7,13.969a.345.345,0,0,1-.58-.254V11.4H8.978v2.763a.345.345,0,0,1-.345.345H7.252a.345.345,0,0,1-.345-.345V10.705A1.381,1.381,0,0,1,8.288,9.324h4.835V7a.345.345,0,0,1,.58-.254l3.635,3.355A.346.346,0,0,1,17.337,10.614Z" fill="#aaacb1"/>
</svg>
