<svg xmlns="http://www.w3.org/2000/svg" width="15.075" height="17.588" viewBox="0 0 15.075 17.588">
  <path id="Icon_metro-file-excel" data-name="Icon metro-file-excel" d="M16.979,5.933a2.284,2.284,0,0,1,.471.746,2.265,2.265,0,0,1,.2.864V18.849a.938.938,0,0,1-.942.942H3.513a.938.938,0,0,1-.942-.942V3.146A.938.938,0,0,1,3.513,2.2h8.794a2.266,2.266,0,0,1,.864.2,2.284,2.284,0,0,1,.746.471ZM12.621,3.538v3.69h3.69a1.072,1.072,0,0,0-.216-.4L13.023,3.754a1.072,1.072,0,0,0-.4-.216Zm3.769,15V8.485H12.307a.938.938,0,0,1-.942-.942V3.46H3.827V18.535H16.39Zm-9.609-2.3v1.04H9.539v-1.04H8.8l1.011-1.58a1.407,1.407,0,0,0,.1-.162q.049-.093.074-.132t.034-.039h.02a.338.338,0,0,0,.049.1.549.549,0,0,0,.044.074q.025.034.059.079l.064.083,1.05,1.58H10.56v1.04h2.856v-1.04h-.667l-1.884-2.679,1.914-2.768h.658V9.741H10.7v1.05h.726l-1.011,1.561q-.039.069-.1.162t-.088.132l-.02.029h-.02a.338.338,0,0,0-.049-.1,1.171,1.171,0,0,0-.167-.226l-1.04-1.561h.746V9.741H6.83v1.05H7.5l1.855,2.67-1.9,2.778H6.781Z" transform="translate(-2.571 -2.204)" fill="#aaacb1"/>
</svg>
