<svg xmlns="http://www.w3.org/2000/svg" width="14.72" height="14.72" viewBox="0 0 14.72 14.72">
  <path id="Icon_awesome-percentage" data-name="Icon awesome-percentage" d="M4.188,8.688a2.453,2.453,0,1,0-3.47,0A2.454,2.454,0,0,0,4.188,8.688ZM14,15.032a2.453,2.453,0,1,0,0,3.47A2.454,2.454,0,0,0,14,15.032ZM13.927,6.16l-.867-.867a1.226,1.226,0,0,0-1.735,0L.793,15.825a1.226,1.226,0,0,0,0,1.735l.867.867a1.226,1.226,0,0,0,1.735,0L13.927,7.895A1.226,1.226,0,0,0,13.927,6.16Z" transform="translate(0 -4.5)" fill="#818ea3"/>
</svg>
